<svg width="1200" height="1200" xmlns="http://www.w3.org/2000/svg" xmlns:xlink="http://www.w3.org/1999/xlink" version="1.1"><g transform="scale(11.36842196562291) translate(2.7277809778849296, 2.777771631876628)">            <linearGradient id="SvgjsLinearGradient3779"><stop id="SvgjsStop3780" stop-color="#006838" offset="0"/><stop id="SvgjsStop3781" stop-color="#96cf24" offset="1"/></linearGradient>            <g fill="url(#SvgjsLinearGradient3779)"><linearGradient id="SvgjsLinearGradient3779"><stop id="SvgjsStop3780" stop-color="#006838" offset="0"/><stop id="SvgjsStop3781" stop-color="#96cf24" offset="1"/></linearGradient><path xmlns="http://www.w3.org/2000/svg" d="M90.4,97.5H9.6l-1.3-1.2h36c-0.2-2.5-0.3-5.1-0.3-7.6c0-7.2,0.5-14.9,2.1-22.4c0.7-7.2-1.5-13.4-5.4-18.7  c-2.7,0-11.7-0.6-16-5.8c-5-6.2-3.5-15.1-10.5-19.4c0,0,32.6-1.8,27.7,23.2c3,3.5,5.4,7.4,6.5,11.8c2-5.8,4.7-11.2,8.4-15.8  c-1.1-4.1-3-13.4,1-19.6c5.3-8.2,16.3-9.8,18.6-19.5c0,0,14.8,38.5-18,41.2c-1,1.4-2,2.9-2.9,4.5c-3,5.4-5.1,11.3-6.5,17.6  c-0.3,2.8-0.9,5.5-1.2,8.2c-0.5,3.7-0.7,7.5-0.8,11.2c-0.1,3.6-0.1,7.2,0.3,10.8c0,0.1,0,0.2,0,0.3h44.5L90.4,97.5z"/></g>        </g></svg>